<?xml version="1.0" encoding="utf-8"?><svg xmlns="http://www.w3.org/2000/svg" xmlns:xlink="http://www.w3.org/1999/xlink" width="1920" height="911" preserveAspectRatio="xMidYMid" viewBox="0 0 1920 911" style="z-index:1;margin-right:-2px;display:block;background-color:rgb(255, 255, 255);animation-play-state:paused" ><g transform="translate(960,455.5) scale(1,1) translate(-960,-455.5)" style="transform:matrix(1, 0, 0, 1, 0, 0);animation-play-state:paused" ><linearGradient id="lg-0.9318287732008679" x1="0" x2="1" y1="0" y2="0" style="animation-play-state:paused" ><stop stop-color="#ff00ff" offset="0" style="animation-play-state:paused" ></stop>

  
<stop stop-color="#00ffff" offset="1" style="animation-play-state:paused" ></stop></linearGradient>
<path d="M 0 0 L 0 843.56 Q 192 738.93 384 712.745 T 768 722.426 T 1152 628.237 T 1536 444.053 T 1920 367.339 L 1920 0 Z" fill="url(#lg-0.9318287732008679)" opacity="0.4" style="opacity:0.4;animation-play-state:paused" ></path>
<path d="M 0 0 L 0 843.401 Q 192 740.368 384 713.315 T 768 683.184 T 1152 560.455 T 1536 441.774 T 1920 390.992 L 1920 0 Z" fill="url(#lg-0.9318287732008679)" opacity="0.4" style="opacity:0.4;animation-play-state:paused" ></path>
<path d="M 0 0 L 0 864.179 Q 192 725.255 384 692.653 T 768 706.711 T 1152 537.685 T 1536 397.868 T 1920 368.696 L 1920 0 Z" fill="url(#lg-0.9318287732008679)" opacity="0.4" style="opacity:0.4;animation-play-state:paused" ></path>
<path d="M 0 0 L 0 838.954 Q 192 807.399 384 783.319 T 768 726.553 T 1152 610.702 T 1536 554.608 T 1920 424.264 L 1920 0 Z" fill="url(#lg-0.9318287732008679)" opacity="0.4" style="opacity:0.4;animation-play-state:paused" ></path>
<path d="M 0 0 L 0 870.499 Q 192 808.989 384 775.054 T 768 629.242 T 1152 575.162 T 1536 510.41 T 1920 464.516 L 1920 0 Z" fill="url(#lg-0.9318287732008679)" opacity="0.4" style="opacity:0.4;animation-play-state:paused" ></path></g></svg>